<svg width="16" height="16" viewBox="0 0 16 16" fill="none" xmlns="http://www.w3.org/2000/svg">
<path fill-rule="evenodd" clip-rule="evenodd" d="M7.99756 14.0166C7.14647 14.0166 6.33486 13.8471 5.59486 13.54C5.2118 13.381 4.84792 13.1852 4.50763 12.957C4.16734 12.7287 2.42756 13.8911 2.13885 13.6024C1.85013 13.3137 3.0125 11.5739 2.78425 11.2336C2.55599 10.8933 2.36018 10.5294 2.20122 10.1463C1.89415 9.40635 1.72461 8.59474 1.72461 7.74365C1.72461 4.2792 4.5331 1.4707 7.99756 1.4707C11.462 1.4707 14.2705 4.2792 14.2705 7.74365C14.2705 11.2081 11.462 14.0166 7.99756 14.0166Z" stroke="black" stroke-linecap="round" stroke-linejoin="round"/>
<path d="M5.83176 10.2194V9.69576C5.83176 9.60118 5.88458 9.51625 5.9536 9.45158C6.08059 9.33261 6.17998 9.15578 6.25177 8.92197C6.3451 8.61703 6.39095 8.21574 6.39095 7.7153V7.51512H5.89932C5.75213 7.51512 5.63281 7.3958 5.63281 7.24861L5.63284 6.04678C5.63284 5.89959 5.75216 5.78027 5.89934 5.78027H7.14131C7.2885 5.78027 7.40783 5.8996 7.40783 6.04679L7.4078 7.00346C7.4078 7.92951 7.27598 8.66006 7.01154 9.19604C6.89039 9.45292 6.72248 9.67716 6.51912 9.85368C6.31578 10.0302 6.08081 10.1549 5.83176 10.2194C5.83176 10.2198 5.83136 10.2194 5.83176 10.2194ZM8.7898 10.2194V9.69576C8.7898 9.60118 8.84262 9.51625 8.91164 9.45159C9.03863 9.33261 9.13802 9.15578 9.2098 8.92197C9.30314 8.61703 9.34899 8.21574 9.34899 7.7153V7.51512H8.85654C8.70935 7.51512 8.59003 7.3958 8.59003 7.24861L8.59006 6.04678C8.59006 5.89959 8.70938 5.78027 8.85656 5.78027H10.0985C10.2457 5.78027 10.365 5.8996 10.365 6.04679V7.00346C10.365 7.92951 10.2332 8.66006 9.96958 9.19604C9.84843 9.45292 9.68052 9.67716 9.47716 9.85368C9.27382 10.0302 9.03884 10.1549 8.7898 10.2194C8.7898 10.2198 8.7894 10.2194 8.7898 10.2194Z" fill="black"/>
</svg>
